# xmcd
#
# Track frame offsets: 
#        150
#        2357
#        26926
#        49247
#        72339
#        94707
#        114417
#        123066
#        148430
#        170010
#        198899
#        228164
#        232922
#        259344
#
# Disc length: 3749 seconds
#
# Revision: 0
# Processed by: cddbd v1.5.2PL0 Copyright (c) Steve Scherf et al.
# Submitted via: ExactAudioCopyFreeDBPlugin 1.0
#
DISCID=bb0ea30e
DTITLE=Avery Sunshine - Twenty Sixty Four
DYEAR=2017
DGENRE=R&B
TTITLE0=Twenty Sixty Four (Prelude)
TTITLE1=Come Do Nothing
TTITLE2=I just Don't Know
TTITLE3=Kiss and Make It Better
TTITLE4=Jump
TTITLE5=Used Car
TTITLE6=Two Eighty Five (Interlude)
TTITLE7=Heaven is Right Here (feat. Mr. Talkbox)
TTITLE8=The Ice Cream Song
TTITLE9=Everythign I've Got
TTITLE10=Twenty Sixty Four
TTITLE11=Abundance (Interlude)
TTITLE12=Prayer Room
TTITLE13=Sweet Hour of Prayer (Postlude)
EXTD=
EXTT0=
EXTT1=
EXTT2=
EXTT3=
EXTT4=
EXTT5=
EXTT6=
EXTT7=
EXTT8=
EXTT9=
EXTT10=
EXTT11=
EXTT12=
EXTT13=
PLAYORDER=
